<svg width="24" height="24" viewBox="0 0 24 24" fill="none" xmlns="http://www.w3.org/2000/svg">
<path fill-rule="evenodd" clip-rule="evenodd" d="M3.2998 4.00005C3.2998 3.61345 3.61321 3.30005 3.9998 3.30005H7.9998C8.32101 3.30005 8.601 3.51866 8.6789 3.83027L9.6789 7.83027C9.74321 8.0875 9.65667 8.35898 9.45536 8.53153L6.52269 11.0452L12.9529 17.6255L15.4575 14.5574C15.629 14.3473 15.9065 14.2552 16.1696 14.3209L20.1696 15.3209C20.4812 15.3989 20.6998 15.6788 20.6998 16V20C20.6998 20.3866 20.3864 20.7001 19.9998 20.7001C17.157 20.7001 14.7499 20.1895 12.7242 19.3185C12.7239 19.3184 12.7235 19.3182 12.7232 19.3181C8.68206 17.58 6.23534 14.4471 4.85794 11.2793M3.2998 4.00005C3.2998 5.98504 3.71619 8.65533 4.85794 11.2793L3.2998 4.00005ZM5.78526 9.83342C5.10685 7.99683 4.79279 6.18346 4.7179 4.70005H7.45326L8.21578 7.75012L5.78526 9.83342ZM14.1498 18.3733L16.2611 15.7869L19.2998 16.5466V19.2889C17.3358 19.2255 15.6297 18.8957 14.1498 18.3733Z" fill="#414249"/>
</svg>
