<svg width="24" height="24" viewBox="0 0 24 24" fill="none" xmlns="http://www.w3.org/2000/svg">
<path fill-rule="evenodd" clip-rule="evenodd" d="M11.9998 3.70005C9.62498 3.70005 7.6998 5.62522 7.6998 8.00005C7.6998 10.3749 9.62498 12.3 11.9998 12.3C14.3746 12.3 16.2998 10.3749 16.2998 8.00005C16.2998 5.62522 14.3746 3.70005 11.9998 3.70005ZM6.2998 8.00005C6.2998 4.85203 8.85178 2.30005 11.9998 2.30005C15.1478 2.30005 17.6998 4.85203 17.6998 8.00005C17.6998 11.1481 15.1478 13.7 11.9998 13.7C8.85178 13.7 6.2998 11.1481 6.2998 8.00005Z" fill="#414249"/>
<path fill-rule="evenodd" clip-rule="evenodd" d="M5.84798 14.8482C7.47954 13.2167 9.69242 12.3 11.9998 12.3C14.3072 12.3 16.5201 13.2167 18.1516 14.8482C19.7832 16.4798 20.6998 18.6927 20.6998 21C20.6998 21.3866 20.3864 21.7 19.9998 21.7C19.6132 21.7 19.2998 21.3866 19.2998 21C19.2998 19.064 18.5307 17.2072 17.1617 15.8382C15.7927 14.4692 13.9359 13.7 11.9998 13.7C10.0637 13.7 8.20694 14.4692 6.83793 15.8382C5.46891 17.2072 4.6998 19.064 4.6998 21C4.6998 21.3866 4.3864 21.7 3.9998 21.7C3.61321 21.7 3.2998 21.3866 3.2998 21C3.2998 18.6927 4.21641 16.4798 5.84798 14.8482Z" fill="#414249"/>
<rect x="0.5" y="0.5" width="23" height="23" stroke="black"/>
<rect x="0.5" y="0.5" width="23" height="23" stroke="black" stroke-opacity="0.2"/>
</svg>
