<svg width="24" height="24" viewBox="0 0 24 24" fill="none" xmlns="http://www.w3.org/2000/svg">
<path fill-rule="evenodd" clip-rule="evenodd" d="M3.23172 5.09117C3.96148 4.07757 5.17163 3.30005 6.9998 3.30005C8.80736 3.30005 10.2275 4.05674 11.1899 5.00034C11.5026 5.30696 11.7754 5.64219 11.9998 5.9869C12.2242 5.64219 12.497 5.30696 12.8097 5.00034C13.7722 4.05674 15.1922 3.30005 16.9998 3.30005C18.828 3.30005 20.0381 4.07757 20.7679 5.09117C21.472 6.06909 21.6998 7.22151 21.6998 8.00005C21.6998 11.7967 19.2705 14.9711 16.9804 17.134C15.8221 18.228 14.6666 19.0943 13.8017 19.6869C13.3686 19.9836 13.0067 20.2129 12.7515 20.3688C12.6239 20.4468 12.5228 20.5066 12.4528 20.5473C12.4177 20.5677 12.3904 20.5833 12.3714 20.5941L12.3492 20.6067L12.3428 20.6102L12.3409 20.6113C12.3406 20.6115 12.3398 20.612 11.9998 20C11.6599 20.612 11.6596 20.6118 11.6594 20.6117L11.6568 20.6102L11.6505 20.6067L11.6282 20.5941C11.6092 20.5833 11.5819 20.5677 11.5469 20.5473C11.4768 20.5066 11.3757 20.4468 11.2481 20.3688C10.9929 20.2129 10.631 19.9836 10.1979 19.6869C9.33303 19.0943 8.17753 18.228 7.01917 17.134C4.72908 14.9711 2.2998 11.7967 2.2998 8.00005C2.2998 7.22151 2.52766 6.06909 3.23172 5.09117ZM11.9998 20L11.6594 20.6117C11.8708 20.7292 12.1283 20.7294 12.3398 20.612L11.9998 20ZM11.9998 19.1875C12.0069 19.1831 12.0142 19.1787 12.0215 19.1742C12.2585 19.0294 12.5997 18.8134 13.0104 18.532C13.833 17.9683 14.9275 17.1471 16.0192 16.1161C18.2291 14.029 20.2998 11.2034 20.2998 8.00005C20.2998 7.44558 20.1277 6.59801 19.6317 5.90917C19.1615 5.25603 18.3716 4.70005 16.9998 4.70005C15.6074 4.70005 14.5275 5.27685 13.7899 6.00001C13.0227 6.75217 12.6998 7.58313 12.6998 8.00005C12.6998 8.38665 12.3864 8.70005 11.9998 8.70005C11.6132 8.70005 11.2998 8.38665 11.2998 8.00005C11.2998 7.58313 10.9769 6.75217 10.2097 6.00001C9.47216 5.27685 8.39225 4.70005 6.9998 4.70005C5.62798 4.70005 4.83813 5.25603 4.36789 5.90917C3.87195 6.59801 3.6998 7.44558 3.6998 8.00005C3.6998 11.2034 5.77053 14.029 7.98044 16.1161C9.07207 17.1471 10.1666 17.9683 10.9892 18.532C11.3999 18.8134 11.7411 19.0294 11.9781 19.1742C11.9854 19.1787 11.9927 19.1831 11.9998 19.1875Z" fill="#414249"/>
</svg>
