<svg width="109" height="82" viewBox="0 0 109 82" fill="none" xmlns="http://www.w3.org/2000/svg">
<path d="M80.9555 6.69776C79.9782 10.0721 78.8303 13.3742 77.5117 16.6044C75.1153 15.9493 69.3759 14.0934 66.9271 13.4956C63.7467 12.7211 62.5931 15.425 64.4917 17.6045C66.3612 19.7584 71.0486 24.1493 72.9442 26.2746C70.9535 29.8961 68.7061 33.3958 66.1468 36.7769C64.1553 39.3917 67.5321 42.6857 70.3232 41.9583C74.5905 40.8217 78.7354 38.9846 82.8833 37.2016C86.4258 40.9763 90.0482 44.6919 93.8015 48.2643C95.439 52.2271 102.076 50.2778 100.671 46.0027C99.1971 41.4866 97.723 36.9705 96.2213 32.4559C98.7447 31.9067 101.309 31.5999 103.981 31.7226C108.211 31.8943 108.461 25.9485 104.762 24.822C100.665 23.5545 96.5688 22.287 92.4725 21.0195C90.9279 16.2352 89.4095 11.4222 87.9464 6.60614C86.9451 3.09757 81.9313 3.29633 80.9555 6.69776Z" fill="#CEE8FF"/>
<path d="M32.3328 50.2468C31.6615 52.5644 30.873 54.8325 29.9674 57.0512C28.3214 56.6012 24.3792 55.3265 22.6973 54.9159C20.5128 54.3839 19.7204 56.2411 21.0245 57.7381C22.3086 59.2176 25.5282 62.2335 26.8302 63.6932C25.4628 66.1807 23.9192 68.5845 22.1613 70.9068C20.7934 72.7028 23.1128 74.9653 25.0299 74.4657C27.9609 73.685 30.8078 72.4232 33.6569 71.1985C36.09 73.7912 38.5782 76.3433 41.1562 78.797C42.2808 81.5189 46.8396 80.18 45.8746 77.2436C44.8621 74.1417 43.8496 71.0398 42.8182 67.9389C44.5514 67.5617 46.313 67.351 48.1483 67.4353C51.0533 67.5532 51.2254 63.4692 48.6841 62.6955C45.8705 61.8249 43.0569 60.9543 40.2433 60.0837C39.1824 56.7976 38.1394 53.4918 37.1345 50.1838C36.4468 47.774 33.003 47.9105 32.3328 50.2468Z" fill="#CEE8FF"/>
<path d="M12.3328 3.49506C11.6615 5.81273 10.873 8.08083 9.96738 10.2995C8.3214 9.84951 4.37921 8.57479 2.69729 8.16422C0.512803 7.63223 -0.279571 9.48941 1.02452 10.9864C2.30856 12.4659 5.52816 15.4818 6.83017 16.9415C5.46284 19.4289 3.91922 21.8328 2.16129 24.1551C0.793435 25.9511 3.11283 28.2136 5.02988 27.714C7.96092 26.9333 10.8078 25.6714 13.6569 24.4468C16.09 27.0395 18.5782 29.5916 21.1562 32.0453C22.2808 34.7672 26.8396 33.4283 25.8746 30.4919C24.8621 27.39 23.8496 24.2881 22.8182 21.1872C24.5514 20.8099 26.313 20.5993 28.1483 20.6836C31.0533 20.8015 31.2254 16.7175 28.6841 15.9438C25.8705 15.0732 23.0569 14.2026 20.2433 13.332C19.1824 10.0459 18.1394 6.74007 17.1345 3.43213C16.4468 1.02224 13.003 1.15876 12.3328 3.49506Z" fill="#CEE8FF"/>
</svg>
