<svg width="45" height="47" viewBox="0 0 45 47" fill="none" xmlns="http://www.w3.org/2000/svg">
<path d="M17.9555 2.69776C16.9782 6.07208 15.8303 9.37423 14.5117 12.6044C12.1153 11.9493 6.37585 10.0934 3.92713 9.49563C0.746713 8.72111 -0.406911 11.425 1.49173 13.6045C3.36117 15.7584 8.04861 20.1493 9.94422 22.2746C7.95351 25.8961 5.70614 29.3958 3.14676 32.7769C1.15529 35.3917 4.53211 38.6857 7.32316 37.9583C11.5905 36.8217 15.7354 34.9846 19.8833 33.2016C23.4258 36.9763 27.0482 40.6919 30.8015 44.2643C32.439 48.2271 39.0762 46.2778 37.6711 42.0027C36.1971 37.4866 34.723 32.9705 33.2213 28.4559C35.7447 27.9067 38.3094 27.5999 40.9814 27.7226C45.2108 27.8943 45.4614 21.9485 41.7616 20.822C37.6652 19.5545 33.5688 18.287 29.4725 17.0195C27.9279 12.2352 26.4095 7.4222 24.9464 2.60614C23.9451 -0.902431 18.9313 -0.703674 17.9555 2.69776Z" fill="#CEE8FF"/>
</svg>
