<svg width="31" height="33" viewBox="0 0 31 33" fill="none" xmlns="http://www.w3.org/2000/svg">
<path d="M12.3328 2.49506C11.6615 4.81273 10.873 7.08083 9.96738 9.29947C8.3214 8.84951 4.37921 7.57479 2.69729 7.16422C0.512803 6.63223 -0.279571 8.48941 1.02452 9.98642C2.30856 11.4659 5.52816 14.4818 6.83017 15.9415C5.46284 18.4289 3.91922 20.8328 2.16129 23.1551C0.793435 24.9511 3.11283 27.2136 5.02988 26.714C7.96092 25.9333 10.8078 24.6714 13.6569 23.4468C16.09 26.0395 18.5782 28.5916 21.1562 31.0453C22.2808 33.7672 26.8396 32.4283 25.8746 29.4919C24.8621 26.39 23.8496 23.2881 22.8182 20.1872C24.5514 19.8099 26.313 19.5993 28.1483 19.6836C31.0533 19.8015 31.2254 15.7175 28.6841 14.9438C25.8705 14.0732 23.0569 13.2026 20.2433 12.332C19.1824 9.04591 18.1394 5.74007 17.1345 2.43213C16.4468 0.0222418 13.003 0.158759 12.3328 2.49506Z" fill="#CEE8FF"/>
</svg>
