<svg width="31" height="33" viewBox="0 0 31 33" fill="none" xmlns="http://www.w3.org/2000/svg">
<path d="M12.3328 2.24677C11.6615 4.56444 10.873 6.83254 9.96738 9.05118C8.3214 8.60122 4.37921 7.3265 2.69729 6.91593C0.512803 6.38394 -0.279571 8.24112 1.02452 9.73813C2.30856 11.2176 5.52816 14.2335 6.83017 15.6932C5.46284 18.1807 3.91922 20.5845 2.16129 22.9068C0.793435 24.7028 3.11283 26.9653 5.02988 26.4657C7.96092 25.685 10.8078 24.4232 13.6569 23.1985C16.09 25.7912 18.5782 28.3433 21.1562 30.797C22.2808 33.5189 26.8396 32.18 25.8746 29.2436C24.8621 26.1417 23.8496 23.0398 22.8182 19.9389C24.5514 19.5617 26.313 19.351 28.1483 19.4353C31.0533 19.5532 31.2254 15.4692 28.6841 14.6955C25.8705 13.8249 23.0569 12.9543 20.2433 12.0837C19.1824 8.79762 18.1394 5.49178 17.1345 2.18383C16.4468 -0.226049 13.003 -0.0895316 12.3328 2.24677Z" fill="#CEE8FF"/>
</svg>
